<?xml version="1.0" encoding="UTF-8" standalone="no"?>
<!DOCTYPE svg PUBLIC "-//W3C//DTD SVG 1.1//EN" "http://www.w3.org/Graphics/SVG/1.1/DTD/svg11.dtd">
<svg width="100%" height="100%" viewBox="0 0 410 408" version="1.1" xmlns="http://www.w3.org/2000/svg" xmlns:xlink="http://www.w3.org/1999/xlink" xml:space="preserve" xmlns:serif="http://www.serif.com/" style="fill-rule:evenodd;clip-rule:evenodd;stroke-linejoin:round;stroke-miterlimit:2;">
    <g transform="matrix(1,0,0,1,0,-0.718994)">
        <path d="M337.555,27.411L329.984,25.79C326.703,25.086 323.469,27.18 322.762,30.461C322.059,33.747 324.152,36.981 327.438,37.684L335.008,39.309C335.434,39.399 335.863,39.446 336.289,39.446C339.094,39.446 341.617,37.489 342.23,34.633C342.934,31.352 340.84,28.118 337.555,27.411Z" style="fill-rule:nonzero;"/>
    </g>
    <g transform="matrix(1,0,0,1,0,-0.718994)">
        <path d="M380.859,20.735L343.418,8.415C335.691,5.872 327.711,3.934 319.703,2.653C311.672,1.372 303.488,0.719 295.375,0.719C280.203,0.719 265.777,7.266 255.789,18.684C245.805,30.094 241.234,45.258 243.25,60.282L253.102,133.883C225.047,124.317 194.973,121.063 165.492,124.473C132.613,128.274 100.902,140.317 73.785,159.297L68.219,163.192L44.922,114.329C43.477,111.293 39.848,110.008 36.812,111.454C33.781,112.899 32.492,116.532 33.941,119.563L58.613,171.325L45.562,186.383C43.367,188.918 43.441,192.825 45.938,195.067C47.102,196.114 48.555,196.629 50.004,196.629C51.707,196.629 53.398,195.918 54.602,194.528L61.262,186.844C67.016,180.207 73.562,174.305 80.762,169.27C82.637,167.954 84.539,166.688 86.457,165.446L86.457,174.477C86.457,177.805 89.023,180.711 92.352,180.809C95.797,180.915 98.621,178.153 98.621,174.731L98.621,158.211C105.977,154.192 113.539,150.684 121.266,147.715L121.266,169.61C121.266,172.942 123.832,175.844 127.16,175.946C130.604,176.047 133.434,173.286 133.434,169.864L133.434,143.5C141.875,140.907 150.473,138.93 159.16,137.555L159.16,173.258C159.16,176.586 161.727,179.493 165.055,179.59C168.5,179.696 171.324,176.934 171.324,173.512L171.324,136.036C177.113,135.504 182.922,135.247 188.742,135.258L188.742,161.09C188.742,164.422 191.309,167.329 194.641,167.426C198.086,167.532 200.91,164.766 200.91,161.344L200.91,135.672C208.289,136.168 215.66,137.118 222.988,138.497L222.988,152.575C222.988,155.907 225.555,158.809 228.887,158.911C232.332,159.012 235.156,156.25 235.156,152.829L235.156,141.2C242.875,143.188 250.52,145.676 258.043,148.676C259.64,149.313 261.445,149.352 263.004,148.629C265.492,147.481 266.852,144.891 266.504,142.29L255.309,58.665C253.762,47.118 257.273,35.461 264.945,26.692C272.625,17.918 283.715,12.883 295.375,12.883C302.848,12.883 310.387,13.485 317.781,14.665C325.156,15.844 332.504,17.629 339.617,19.969L377.059,32.29C384.441,34.719 390.352,39.829 393.867,46.329L316.691,46.329C313.359,46.329 310.457,48.895 310.355,52.227C310.254,55.672 313.016,58.497 316.438,58.497L397.367,58.497C397.41,59.141 397.434,59.786 397.434,60.438C397.434,62.512 396.621,64.469 395.152,65.946C393.688,67.411 391.73,68.219 389.648,68.219C389.648,68.219 315.215,68.219 314.973,68.243C314.633,68.27 306.523,68.875 299.934,62.813C293.973,57.332 290.934,48.008 290.891,35.098C290.879,31.77 288.348,28.856 285.023,28.743C281.566,28.622 278.723,31.387 278.723,34.821C278.723,51.555 283.156,64.047 291.898,71.954C297.867,77.348 304.562,79.348 309.41,80.055L308.816,155.317C308.789,158.676 311.492,161.422 314.852,161.45C318.203,161.504 320.953,158.774 320.98,155.415L321.574,80.383L389.648,80.383C394.98,80.383 399.992,78.309 403.762,74.54C407.527,70.762 409.602,65.754 409.602,60.442C409.602,42.34 398.047,26.383 380.859,20.735Z" style="fill-rule:nonzero;"/>
    </g>
    <g transform="matrix(1,0,0,1,2.1743,-0.721994)">
        <path d="M247.09,266.955L247.09,312.391C247.09,332.231 232.477,348.723 213.445,351.661L213.445,377.258L214.34,377.258C227.934,377.258 238.996,388.321 238.996,401.918C238.996,405.278 236.273,408 232.914,408L197.84,408C183.637,408 172.082,396.446 172.082,382.239L172.082,329.873L184.246,315.745L184.246,382.239C184.246,389.735 190.344,395.832 197.84,395.832L225.246,395.832C223.105,392.012 219.02,389.426 214.34,389.426L207.363,389.426C204.004,389.426 201.281,386.7 201.281,383.344L201.281,346.04C201.281,342.68 204.004,339.957 207.363,339.957C222.562,339.957 234.926,327.59 234.926,312.387L234.926,271.824L247.09,266.955Z" style="fill-rule:nonzero;"/>
    </g>
    <g transform="matrix(1,0,0,1,0,-0.718994)">
        <path d="M272.287,249.345L279.692,259.068C270.937,265.261 257.234,274.147 247.09,277.461C242.048,278.969 238.103,279.987 234.926,280.661C228.012,282.055 220.949,282.778 213.844,282.778L189.552,282.778L189.551,270.61L213.844,270.61C233.248,270.61 256.455,260.392 272.287,249.345ZM100.218,269.268C46.866,266.566 0,222.313 0,168.297L0,46.993C0,44.149 1.969,41.684 4.742,41.059C7.512,40.43 10.352,41.809 11.574,44.375L35.988,95.586C37.434,98.618 36.148,102.25 33.113,103.696C30.078,105.141 26.449,103.852 25.004,100.821L12.164,73.887L12.164,168.297C12.164,214.861 51.55,253.185 97.156,256.932L100.218,269.268ZM292.108,227.461C300.221,213.419 308.456,193.258 308.641,176.86C308.68,173.524 311.398,170.844 314.723,170.844L314.793,170.844C318.156,170.883 320.848,173.637 320.809,176.997C320.645,191.555 310.464,214.705 304.696,227.81L292.108,227.461Z" style="fill-rule:nonzero;"/>
    </g>
    <g transform="matrix(1,0,0,1,0,-0.718994)">
        <path d="M296.522,226.319C296.598,226.189 310.512,221.629 310.512,221.629L312.332,220.985C318.137,218.926 324.598,219.379 330.062,222.227C335.523,225.075 339.594,230.118 341.227,236.059L348,260.68C349.715,266.918 347.035,273.165 341.332,276.223C339.242,277.344 337.02,277.887 334.832,277.887C331.055,277.887 327.387,276.258 324.699,273.165L312.801,259.473L289.961,272.426C287.34,273.915 284.027,273.258 282.172,270.891L275.922,262.922L268.391,253.325L233.504,208.844C231.434,206.2 231.895,202.375 234.539,200.301C237.18,198.231 241.004,198.692 243.078,201.336L288.508,259.258L311.121,246.434C313.641,245.004 316.816,245.551 318.715,247.735L333.879,265.184C334.078,265.411 334.605,266.02 335.582,265.497C336.559,264.973 336.348,264.196 336.266,263.903L329.496,239.282C328.746,236.551 326.945,234.325 324.434,233.016C321.922,231.704 319.07,231.504 316.398,232.454L299.203,238.555C299.184,238.559 299.168,238.563 299.152,238.571L295.07,240.02C291.953,241.125 288.523,239.536 287.348,236.442L274.781,203.274C270.516,192.02 259.57,184.719 247.535,185.114C244.184,185.223 241.367,182.586 241.258,179.231C241.152,175.872 243.785,173.063 247.141,172.954C264.375,172.391 280.051,182.844 286.156,198.965L296.522,226.319Z" style="fill-rule:nonzero;"/>
    </g>
    <g transform="matrix(1,0,0,1,0,-0.718994)">
        <path d="M96.293,269.286C96.234,269.283 94.115,256.962 94.207,256.969C94.18,256.415 94.156,255.856 94.145,255.297C93.754,237.094 102.453,220.024 117.41,209.645C120.172,207.727 123.965,208.415 125.879,211.176C127.793,213.938 127.109,217.727 124.348,219.641C112.75,227.688 106.004,240.922 106.309,255.036C106.613,269.153 113.922,282.082 125.855,289.622L139.602,298.309C141.293,299.379 142.352,301.211 142.43,303.211C142.512,305.207 141.602,307.118 140.004,308.321L119.809,323.465C115.695,326.551 113.238,331.461 113.238,336.606L113.238,382.239C113.238,389.731 119.336,395.829 126.832,395.829L154.234,395.829C152.098,392.012 148.008,389.422 143.328,389.422L136.355,389.422C132.996,389.422 130.27,386.7 130.27,383.34L130.27,346.032C130.27,342.677 132.996,339.95 136.355,339.95C161.844,339.95 182.582,319.211 182.582,293.719L182.582,246.274C182.582,242.915 185.309,240.192 188.668,240.192C192.027,240.192 194.75,242.915 194.75,246.274L194.75,293.719C194.75,306.118 190.863,317.622 184.246,327.086C180.619,331.778 176.588,336.066 172.082,339.879C163.711,346.375 153.531,350.649 142.438,351.805L142.438,377.258L143.332,377.258C156.926,377.258 167.988,388.317 167.988,401.915C167.988,405.275 165.262,407.997 161.902,407.997L126.832,407.997C112.629,407.997 101.074,396.442 101.074,382.239L101.074,336.606C101.074,327.653 105.348,319.106 112.508,313.735L125.645,303.883L119.359,299.911C108.023,292.747 99.934,281.817 96.293,269.286Z" style="fill-rule:nonzero;"/>
    </g>
    <g transform="matrix(0.626741,-0.108155,0.108155,0.626741,35.2286,47.0055)">
        <path d="M178,2.3C172,5.3 169.4,10.9 169.4,26.1C169.4,26.1 172.4,23.1 177.2,21.3C180.7,20 183.2,18.3 185,17C190.2,13.1 191,8.4 191,0.2C190.9,0.2 182.7,-0.3 178,2.3Z" style="fill-rule:nonzero;"/>
    </g>
    <g transform="matrix(0.626741,-0.108155,0.108155,0.626741,35.2286,43.8258)">
        <path d="M141.3,5.8C136.1,10.1 134.8,17.5 134.8,17.5L118,81.9L104.2,29.2C102.9,23.6 100.3,16.7 96.4,11.9C91.6,5.8 81.6,5.4 80.4,5.4C79.5,5.4 69.6,5.8 64.4,11.9C60.5,16.7 57.9,23.6 56.6,29.2L43.6,81.9L26.8,17.5C26.8,17.5 25.5,10.6 20.3,5.8C12.1,-1.6 0,0.2 0,0.2L32,120.7C32,120.7 42.4,121.6 47.6,119C54.5,115.5 58,113 61.9,96.5C65.8,81.8 76.2,39 77,36C77.4,34.7 78.3,30.8 80.9,30.8C83.5,30.8 84.4,34.3 84.8,36C85.7,39 96,81.8 99.9,96.5C104.2,112.9 107.2,115.5 114.2,119C119.4,121.6 129.8,120.7 129.8,120.7L161.6,0.2C161.6,0.2 149.5,-1.5 141.3,5.8Z" style="fill-rule:nonzero;"/>
    </g>
    <g transform="matrix(0.626741,-0.108155,0.108155,0.626741,35.2286,43.8258)">
        <path d="M190.9,19.6C190.9,19.6 188.7,22.6 184.4,25.2C181.4,26.9 178.8,27.8 175.8,29.5C170.6,32.1 169.3,34.7 169.3,38.6L169.3,120.3C169.3,120.3 177.5,121.2 182.7,118.6C189.6,115.1 190.9,111.7 190.9,97L190.9,19.6Z" style="fill-rule:nonzero;"/>
    </g>
    <g transform="matrix(0.626741,-0.108155,0.108155,0.626741,35.2286,47.0055)">
        <path d="M270.4,60.7L311,0.6C311,0.6 294.2,-2.4 285.5,5.4C279.9,10.2 274.3,19.2 274.3,19.2L259.6,40.8C258.7,42.1 257.9,43 256.6,43C255.3,43 254,41.7 253.6,40.8L238.9,19.2C238.9,19.2 232.9,10.6 227.7,5.4C219.1,-2.4 202.2,0.6 202.2,0.6L241.5,60.6L201.3,120.6C201.3,120.6 219,122.8 227.7,115C233.3,110.2 238.5,102 238.5,102L253.2,80.4C254.1,79.1 254.9,78.2 256.2,78.2C257.5,78.2 258.8,79.5 259.2,80.4L273.9,102C273.9,102 279.5,110.2 284.7,115C293.3,122.8 310.6,120.6 310.6,120.6L270.4,60.7Z" style="fill-rule:nonzero;"/>
    </g>
</svg>
