<svg width="280" height="270" viewBox="0 0 280 270" fill="none" xmlns="http://www.w3.org/2000/svg">
<g clip-path="url(#clip0_153_1373)">
<rect width="280" height="270" fill="white"/>
<g filter="url(#filter0_f_153_1373)">
<rect x="85" y="223" width="112" height="47" fill="url(#paint0_linear_153_1373)"/>
</g>
<path d="M6.89511e-06 108.744C7.52261e-06 94.3882 1.76058 80.7504 5.28171 67.8303C9.03758 54.9103 14.4366 43.3061 21.4789 33.0179C28.5211 22.969 37.2066 14.9538 47.5352 8.97226C57.8639 3.23001 69.8357 0.239253 83.4507 -7.2801e-06C85.5634 -7.18775e-06 87.324 0.717776 88.7324 2.15334C90.3756 3.5889 91.1972 5.38335 91.1972 7.5367L91.1972 68.5481C91.1972 72.3763 90.3756 75.1278 88.7324 76.8026C87.0892 78.7167 84.3897 80.3915 80.6338 81.8271C75.939 83.5019 71.9484 85.5356 68.662 87.9282C65.6103 90.5601 63.3803 93.7901 61.9718 97.6183C60.5634 101.446 59.8592 105.873 59.8592 110.897C59.8592 120.228 62.7934 127.406 68.662 132.431C74.5305 137.694 83.8028 140.326 96.4789 140.326L188.028 140.326L188.028 28.7113C188.028 26.0794 188.85 23.8064 190.493 21.8923C192.371 20.2175 194.601 19.3801 197.183 19.3801L240.845 19.3801C243.427 19.3801 245.54 20.2175 247.183 21.8923C249.061 23.8064 250 26.0794 250 28.7113L250 210.669C250 213.301 249.061 215.454 247.183 217.129C245.54 219.043 243.427 220 240.845 220L94.0141 220C73.1221 220 55.6338 215.095 41.5493 205.285C27.6995 195.715 17.2535 182.436 10.2113 165.449C3.40377 148.7 5.97477e-06 129.799 6.89511e-06 108.744Z" fill="white"/>
</g>
<defs>
<filter id="filter0_f_153_1373" x="78" y="216" width="126" height="61" filterUnits="userSpaceOnUse" color-interpolation-filters="sRGB">
<feFlood flood-opacity="0" result="BackgroundImageFix"/>
<feBlend mode="normal" in="SourceGraphic" in2="BackgroundImageFix" result="shape"/>
<feGaussianBlur stdDeviation="3.5" result="effect1_foregroundBlur_153_1373"/>
</filter>
<linearGradient id="paint0_linear_153_1373" x1="141" y1="223" x2="141" y2="270" gradientUnits="userSpaceOnUse">
<stop stop-color="#CE4D45"/>
<stop offset="1" stop-color="#CE4D45" stop-opacity="0"/>
</linearGradient>
<clipPath id="clip0_153_1373">
<rect width="280" height="270" fill="white"/>
</clipPath>
</defs>
</svg>
